<mxfile host="Electron" modified="2024-07-02T10:03:48.562Z" agent="Mozilla/5.0 (Windows NT 10.0; Win64; x64) AppleWebKit/537.36 (KHTML, like Gecko) draw.io/24.4.13 Chrome/124.0.6367.207 Electron/30.0.6 Safari/537.36" etag="JxagHOeA0xgw-PVd7itR" version="24.4.13" type="device">
  <diagram name="Page-1" id="2YBvvXClWsGukQMizWep">
    <mxGraphModel dx="1839" dy="577" grid="1" gridSize="5" guides="0" tooltips="1" connect="0" arrows="0" fold="1" page="1" pageScale="1" pageWidth="850" pageHeight="1100" math="0" shadow="0">
      <root>
        <mxCell id="0" />
        <mxCell id="1" parent="0" />
        <mxCell id="79DR0vdrvrGHrPE37Fvl-13" value="" style="rounded=0;whiteSpace=wrap;html=1;fillColor=none;dashed=1;dashPattern=1 2;" parent="1" vertex="1">
          <mxGeometry x="380" y="180" width="210" height="410" as="geometry" />
        </mxCell>
        <mxCell id="aM9ryv3xv72pqoxQDRHE-1" value="Selection-&lt;br&gt;Controller" style="shape=umlLifeline;perimeter=lifelinePerimeter;whiteSpace=wrap;html=1;container=0;dropTarget=0;collapsible=0;recursiveResize=0;outlineConnect=0;portConstraint=eastwest;newEdgeStyle={&quot;edgeStyle&quot;:&quot;elbowEdgeStyle&quot;,&quot;elbow&quot;:&quot;vertical&quot;,&quot;curved&quot;:0,&quot;rounded&quot;:0};fontFamily=&quot;Latin Modern Mono 12&quot;;" parent="1" vertex="1">
          <mxGeometry x="50" y="60" width="100" height="590" as="geometry" />
        </mxCell>
        <mxCell id="aM9ryv3xv72pqoxQDRHE-2" value="" style="html=1;points=[];perimeter=orthogonalPerimeter;outlineConnect=0;targetShapes=umlLifeline;portConstraint=eastwest;newEdgeStyle={&quot;edgeStyle&quot;:&quot;elbowEdgeStyle&quot;,&quot;elbow&quot;:&quot;vertical&quot;,&quot;curved&quot;:0,&quot;rounded&quot;:0};" parent="aM9ryv3xv72pqoxQDRHE-1" vertex="1">
          <mxGeometry x="45" y="60" width="10" height="150" as="geometry" />
        </mxCell>
        <mxCell id="79DR0vdrvrGHrPE37Fvl-19" value="" style="html=1;points=[];perimeter=orthogonalPerimeter;outlineConnect=0;targetShapes=umlLifeline;portConstraint=eastwest;newEdgeStyle={&quot;edgeStyle&quot;:&quot;elbowEdgeStyle&quot;,&quot;elbow&quot;:&quot;vertical&quot;,&quot;curved&quot;:0,&quot;rounded&quot;:0};" parent="aM9ryv3xv72pqoxQDRHE-1" vertex="1">
          <mxGeometry x="45" y="240" width="10" height="70" as="geometry" />
        </mxCell>
        <mxCell id="79DR0vdrvrGHrPE37Fvl-31" value="" style="html=1;points=[];perimeter=orthogonalPerimeter;outlineConnect=0;targetShapes=umlLifeline;portConstraint=eastwest;newEdgeStyle={&quot;edgeStyle&quot;:&quot;elbowEdgeStyle&quot;,&quot;elbow&quot;:&quot;vertical&quot;,&quot;curved&quot;:0,&quot;rounded&quot;:0};" parent="aM9ryv3xv72pqoxQDRHE-1" vertex="1">
          <mxGeometry x="45" y="340" width="10" height="140" as="geometry" />
        </mxCell>
        <mxCell id="79DR0vdrvrGHrPE37Fvl-43" value="" style="html=1;points=[];perimeter=orthogonalPerimeter;outlineConnect=0;targetShapes=umlLifeline;portConstraint=eastwest;newEdgeStyle={&quot;edgeStyle&quot;:&quot;elbowEdgeStyle&quot;,&quot;elbow&quot;:&quot;vertical&quot;,&quot;curved&quot;:0,&quot;rounded&quot;:0};" parent="aM9ryv3xv72pqoxQDRHE-1" vertex="1">
          <mxGeometry x="45" y="510" width="10" height="70" as="geometry" />
        </mxCell>
        <mxCell id="aM9ryv3xv72pqoxQDRHE-5" value="BlueprintMenu-Controller" style="shape=umlLifeline;perimeter=lifelinePerimeter;whiteSpace=wrap;html=1;container=0;dropTarget=0;collapsible=0;recursiveResize=0;outlineConnect=0;portConstraint=eastwest;newEdgeStyle={&quot;edgeStyle&quot;:&quot;elbowEdgeStyle&quot;,&quot;elbow&quot;:&quot;vertical&quot;,&quot;curved&quot;:0,&quot;rounded&quot;:0};fontFamily=&quot;Latin Modern Mono 12&quot;;" parent="1" vertex="1">
          <mxGeometry x="170" y="60" width="100" height="590" as="geometry" />
        </mxCell>
        <mxCell id="aM9ryv3xv72pqoxQDRHE-6" value="" style="html=1;points=[];perimeter=orthogonalPerimeter;outlineConnect=0;targetShapes=umlLifeline;portConstraint=eastwest;newEdgeStyle={&quot;edgeStyle&quot;:&quot;elbowEdgeStyle&quot;,&quot;elbow&quot;:&quot;vertical&quot;,&quot;curved&quot;:0,&quot;rounded&quot;:0};" parent="aM9ryv3xv72pqoxQDRHE-5" vertex="1">
          <mxGeometry x="45" y="70" width="10" height="20" as="geometry" />
        </mxCell>
        <mxCell id="79DR0vdrvrGHrPE37Fvl-48" value="" style="html=1;points=[];perimeter=orthogonalPerimeter;outlineConnect=0;targetShapes=umlLifeline;portConstraint=eastwest;newEdgeStyle={&quot;edgeStyle&quot;:&quot;elbowEdgeStyle&quot;,&quot;elbow&quot;:&quot;vertical&quot;,&quot;curved&quot;:0,&quot;rounded&quot;:0};" parent="aM9ryv3xv72pqoxQDRHE-5" vertex="1">
          <mxGeometry x="45" y="390" width="10" height="20" as="geometry" />
        </mxCell>
        <mxCell id="79DR0vdrvrGHrPE37Fvl-55" value="" style="html=1;points=[];perimeter=orthogonalPerimeter;outlineConnect=0;targetShapes=umlLifeline;portConstraint=eastwest;newEdgeStyle={&quot;edgeStyle&quot;:&quot;elbowEdgeStyle&quot;,&quot;elbow&quot;:&quot;vertical&quot;,&quot;curved&quot;:0,&quot;rounded&quot;:0};" parent="aM9ryv3xv72pqoxQDRHE-5" vertex="1">
          <mxGeometry x="45" y="560" width="10" height="10" as="geometry" />
        </mxCell>
        <mxCell id="aM9ryv3xv72pqoxQDRHE-7" value="&lt;font face=&quot;&amp;quot;Latin Modern Mono 12&amp;quot;&quot;&gt;TrySelect&lt;/font&gt;" style="html=1;verticalAlign=bottom;endArrow=block;edgeStyle=elbowEdgeStyle;elbow=vertical;curved=0;rounded=0;fontSize=12;fontFamily=&quot;Latin Modern Regular 12&quot;;" parent="1" edge="1">
          <mxGeometry x="-0.0019" relative="1" as="geometry">
            <mxPoint x="105" y="130" as="sourcePoint" />
            <Array as="points">
              <mxPoint x="180" y="130" />
            </Array>
            <mxPoint x="215" y="130" as="targetPoint" />
            <mxPoint as="offset" />
          </mxGeometry>
        </mxCell>
        <mxCell id="aM9ryv3xv72pqoxQDRHE-8" value="&lt;font face=&quot;&amp;quot;Latin Modern Mono 12&amp;quot;&quot;&gt;B&lt;/font&gt;&lt;span style=&quot;font-family: &amp;quot;Latin Modern Mono 12&amp;quot;;&quot;&gt;lueprint&lt;/span&gt;" style="html=1;verticalAlign=bottom;endArrow=open;dashed=1;endSize=8;edgeStyle=elbowEdgeStyle;elbow=vertical;curved=0;rounded=0;fontFamily=&quot;Latin Modern Regular 12&quot;;fontSize=12;fontStyle=2" parent="1" edge="1">
          <mxGeometry relative="1" as="geometry">
            <mxPoint x="105" y="150" as="targetPoint" />
            <Array as="points">
              <mxPoint x="190" y="150" />
            </Array>
            <mxPoint x="215" y="150" as="sourcePoint" />
            <mxPoint as="offset" />
          </mxGeometry>
        </mxCell>
        <mxCell id="aM9ryv3xv72pqoxQDRHE-3" value="&lt;font&gt;Select a blueprint&lt;/font&gt;" style="html=1;verticalAlign=bottom;startArrow=oval;endArrow=block;startSize=8;edgeStyle=elbowEdgeStyle;elbow=vertical;curved=0;rounded=0;fontFamily=&quot;Latin Modern Regular 12&quot;;fontSize=12;" parent="1" edge="1">
          <mxGeometry x="-0.0588" relative="1" as="geometry">
            <mxPoint x="-10" y="120" as="sourcePoint" />
            <mxPoint x="95" y="120" as="targetPoint" />
            <mxPoint as="offset" />
          </mxGeometry>
        </mxCell>
        <mxCell id="79DR0vdrvrGHrPE37Fvl-9" value="Blueprinted" style="shape=umlLifeline;perimeter=lifelinePerimeter;whiteSpace=wrap;html=1;container=0;dropTarget=0;collapsible=0;recursiveResize=0;outlineConnect=0;portConstraint=eastwest;newEdgeStyle={&quot;edgeStyle&quot;:&quot;elbowEdgeStyle&quot;,&quot;elbow&quot;:&quot;vertical&quot;,&quot;curved&quot;:0,&quot;rounded&quot;:0};fontFamily=&quot;Latin Modern Mono 12&quot;;" parent="1" vertex="1">
          <mxGeometry x="390" y="190" width="90" height="390" as="geometry" />
        </mxCell>
        <mxCell id="79DR0vdrvrGHrPE37Fvl-10" value="" style="html=1;points=[];perimeter=orthogonalPerimeter;outlineConnect=0;targetShapes=umlLifeline;portConstraint=eastwest;newEdgeStyle={&quot;edgeStyle&quot;:&quot;elbowEdgeStyle&quot;,&quot;elbow&quot;:&quot;vertical&quot;,&quot;curved&quot;:0,&quot;rounded&quot;:0};" parent="79DR0vdrvrGHrPE37Fvl-9" vertex="1">
          <mxGeometry x="40" y="60" width="10" height="10" as="geometry" />
        </mxCell>
        <mxCell id="79DR0vdrvrGHrPE37Fvl-24" value="" style="html=1;points=[];perimeter=orthogonalPerimeter;outlineConnect=0;targetShapes=umlLifeline;portConstraint=eastwest;newEdgeStyle={&quot;edgeStyle&quot;:&quot;elbowEdgeStyle&quot;,&quot;elbow&quot;:&quot;vertical&quot;,&quot;curved&quot;:0,&quot;rounded&quot;:0};" parent="79DR0vdrvrGHrPE37Fvl-9" vertex="1">
          <mxGeometry x="40" y="160" width="10" height="10" as="geometry" />
        </mxCell>
        <mxCell id="79DR0vdrvrGHrPE37Fvl-35" value="" style="html=1;points=[];perimeter=orthogonalPerimeter;outlineConnect=0;targetShapes=umlLifeline;portConstraint=eastwest;newEdgeStyle={&quot;edgeStyle&quot;:&quot;elbowEdgeStyle&quot;,&quot;elbow&quot;:&quot;vertical&quot;,&quot;curved&quot;:0,&quot;rounded&quot;:0};" parent="79DR0vdrvrGHrPE37Fvl-9" vertex="1">
          <mxGeometry x="40" y="320" width="10" height="10" as="geometry" />
        </mxCell>
        <mxCell id="79DR0vdrvrGHrPE37Fvl-11" value="Placement" style="shape=umlLifeline;perimeter=lifelinePerimeter;whiteSpace=wrap;html=1;container=0;dropTarget=0;collapsible=0;recursiveResize=0;outlineConnect=0;portConstraint=eastwest;newEdgeStyle={&quot;edgeStyle&quot;:&quot;elbowEdgeStyle&quot;,&quot;elbow&quot;:&quot;vertical&quot;,&quot;curved&quot;:0,&quot;rounded&quot;:0};fontFamily=&quot;Latin Modern Mono 12&quot;;" parent="1" vertex="1">
          <mxGeometry x="490" y="190" width="90" height="390" as="geometry" />
        </mxCell>
        <mxCell id="79DR0vdrvrGHrPE37Fvl-12" value="" style="html=1;points=[];perimeter=orthogonalPerimeter;outlineConnect=0;targetShapes=umlLifeline;portConstraint=eastwest;newEdgeStyle={&quot;edgeStyle&quot;:&quot;elbowEdgeStyle&quot;,&quot;elbow&quot;:&quot;vertical&quot;,&quot;curved&quot;:0,&quot;rounded&quot;:0};" parent="79DR0vdrvrGHrPE37Fvl-11" vertex="1">
          <mxGeometry x="40" y="120" width="10" height="20" as="geometry" />
        </mxCell>
        <mxCell id="79DR0vdrvrGHrPE37Fvl-47" value="" style="html=1;points=[];perimeter=orthogonalPerimeter;outlineConnect=0;targetShapes=umlLifeline;portConstraint=eastwest;newEdgeStyle={&quot;edgeStyle&quot;:&quot;elbowEdgeStyle&quot;,&quot;elbow&quot;:&quot;vertical&quot;,&quot;curved&quot;:0,&quot;rounded&quot;:0};" parent="79DR0vdrvrGHrPE37Fvl-11" vertex="1">
          <mxGeometry x="40" y="220" width="10" height="20" as="geometry" />
        </mxCell>
        <mxCell id="79DR0vdrvrGHrPE37Fvl-34" value="" style="html=1;points=[];perimeter=orthogonalPerimeter;outlineConnect=0;targetShapes=umlLifeline;portConstraint=eastwest;newEdgeStyle={&quot;edgeStyle&quot;:&quot;elbowEdgeStyle&quot;,&quot;elbow&quot;:&quot;vertical&quot;,&quot;curved&quot;:0,&quot;rounded&quot;:0};" parent="79DR0vdrvrGHrPE37Fvl-11" vertex="1">
          <mxGeometry x="40" y="300" width="10" height="40" as="geometry" />
        </mxCell>
        <mxCell id="79DR0vdrvrGHrPE37Fvl-14" value="blueprinted object" style="text;html=1;align=center;verticalAlign=middle;whiteSpace=wrap;rounded=0;fontFamily=&quot;Latin Modern Regular 12&quot;;" parent="1" vertex="1">
          <mxGeometry x="380" y="165" width="210" height="10" as="geometry" />
        </mxCell>
        <mxCell id="79DR0vdrvrGHrPE37Fvl-15" value="&lt;font face=&quot;&amp;quot;Latin Modern Mono 12&amp;quot;&quot; style=&quot;font-style: normal;&quot;&gt;Instantiate&lt;/font&gt;" style="html=1;verticalAlign=bottom;endArrow=block;edgeStyle=elbowEdgeStyle;elbow=vertical;curved=0;rounded=0;fontSize=12;fontFamily=&quot;Latin Modern Regular 12&quot;;fontStyle=2" parent="1" target="ERffLoXpCi4YTAkiUmGt-3" edge="1">
          <mxGeometry x="-0.0019" relative="1" as="geometry">
            <mxPoint x="105" y="170" as="sourcePoint" />
            <Array as="points">
              <mxPoint x="180" y="170" />
            </Array>
            <mxPoint x="290" y="170" as="targetPoint" />
            <mxPoint as="offset" />
          </mxGeometry>
        </mxCell>
        <mxCell id="79DR0vdrvrGHrPE37Fvl-16" value="&lt;font&gt;InitBlueprint&lt;/font&gt;" style="html=1;verticalAlign=bottom;endArrow=block;edgeStyle=elbowEdgeStyle;elbow=vertical;curved=0;rounded=0;fontSize=12;fontFamily=&quot;Latin Modern Mono 12&quot;;" parent="1" edge="1">
          <mxGeometry x="-0.0019" relative="1" as="geometry">
            <mxPoint x="105" y="250" as="sourcePoint" />
            <Array as="points">
              <mxPoint x="180" y="250" />
            </Array>
            <mxPoint x="430" y="250" as="targetPoint" />
            <mxPoint as="offset" />
          </mxGeometry>
        </mxCell>
        <mxCell id="79DR0vdrvrGHrPE37Fvl-20" value="&lt;font&gt;Set up&lt;/font&gt;" style="html=1;verticalAlign=bottom;startArrow=oval;endArrow=block;startSize=8;edgeStyle=elbowEdgeStyle;elbow=vertical;curved=0;rounded=0;fontFamily=&quot;Latin Modern Regular 12&quot;;fontSize=12;" parent="1" edge="1">
          <mxGeometry x="-0.0588" relative="1" as="geometry">
            <mxPoint x="-10" y="300" as="sourcePoint" />
            <mxPoint x="95" y="300" as="targetPoint" />
            <mxPoint as="offset" />
          </mxGeometry>
        </mxCell>
        <mxCell id="79DR0vdrvrGHrPE37Fvl-21" value="&lt;font&gt;Setup&lt;/font&gt;" style="html=1;verticalAlign=bottom;endArrow=block;edgeStyle=elbowEdgeStyle;elbow=vertical;curved=0;rounded=0;fontSize=12;fontFamily=&quot;Latin Modern Mono 12&quot;;" parent="1" edge="1">
          <mxGeometry x="-0.0019" relative="1" as="geometry">
            <mxPoint x="105" y="310" as="sourcePoint" />
            <Array as="points">
              <mxPoint x="180" y="310" />
            </Array>
            <mxPoint x="530" y="310" as="targetPoint" />
            <mxPoint as="offset" />
          </mxGeometry>
        </mxCell>
        <mxCell id="79DR0vdrvrGHrPE37Fvl-22" value="bool" style="html=1;verticalAlign=bottom;endArrow=open;dashed=1;endSize=8;edgeStyle=elbowEdgeStyle;elbow=vertical;curved=0;rounded=0;fontFamily=&quot;Latin Modern Mono 12&quot;;fontSize=12;fontStyle=2" parent="1" source="79DR0vdrvrGHrPE37Fvl-12" edge="1">
          <mxGeometry relative="1" as="geometry">
            <mxPoint x="105" y="330" as="targetPoint" />
            <Array as="points">
              <mxPoint x="135" y="330" />
            </Array>
            <mxPoint x="480" y="285" as="sourcePoint" />
          </mxGeometry>
        </mxCell>
        <mxCell id="79DR0vdrvrGHrPE37Fvl-23" value="&lt;font&gt;OnSetupPlacement&lt;/font&gt;" style="html=1;verticalAlign=bottom;endArrow=block;edgeStyle=elbowEdgeStyle;elbow=vertical;curved=0;rounded=0;fontSize=12;fontFamily=&quot;Latin Modern Mono 12&quot;;exitX=0.5;exitY=0.5;exitDx=0;exitDy=0;exitPerimeter=0;" parent="1" edge="1" target="79DR0vdrvrGHrPE37Fvl-24">
          <mxGeometry x="-0.0019" relative="1" as="geometry">
            <mxPoint x="105" y="350" as="sourcePoint" />
            <Array as="points">
              <mxPoint x="180" y="350" />
            </Array>
            <mxPoint x="340" y="350" as="targetPoint" />
            <mxPoint as="offset" />
          </mxGeometry>
        </mxCell>
        <mxCell id="79DR0vdrvrGHrPE37Fvl-32" value="&lt;font&gt;Try place&lt;/font&gt;" style="html=1;verticalAlign=bottom;startArrow=oval;endArrow=block;startSize=8;edgeStyle=elbowEdgeStyle;elbow=vertical;curved=0;rounded=0;fontFamily=&quot;Latin Modern Regular 12&quot;;fontSize=12;" parent="1" edge="1">
          <mxGeometry x="-0.0588" relative="1" as="geometry">
            <mxPoint x="-10" y="400" as="sourcePoint" />
            <mxPoint x="95" y="400" as="targetPoint" />
            <mxPoint as="offset" />
          </mxGeometry>
        </mxCell>
        <mxCell id="79DR0vdrvrGHrPE37Fvl-44" value="&lt;font&gt;Deselect a blueprint&lt;/font&gt;" style="html=1;verticalAlign=bottom;startArrow=oval;endArrow=block;startSize=8;edgeStyle=elbowEdgeStyle;elbow=vertical;curved=0;rounded=0;fontFamily=&quot;Latin Modern Regular 12&quot;;fontSize=12;labelBackgroundColor=none;" parent="1" edge="1">
          <mxGeometry x="-0.0588" relative="1" as="geometry">
            <mxPoint x="-10" y="570" as="sourcePoint" />
            <mxPoint x="95" y="570" as="targetPoint" />
            <mxPoint as="offset" />
          </mxGeometry>
        </mxCell>
        <mxCell id="79DR0vdrvrGHrPE37Fvl-36" value="&lt;font&gt;Place&lt;/font&gt;" style="html=1;verticalAlign=bottom;endArrow=block;edgeStyle=elbowEdgeStyle;elbow=vertical;curved=0;rounded=0;fontSize=12;fontFamily=&quot;Latin Modern Mono 12&quot;;" parent="1" edge="1">
          <mxGeometry x="-0.0019" relative="1" as="geometry">
            <mxPoint x="530" y="510.14" as="sourcePoint" />
            <Array as="points" />
            <mxPoint x="440" y="510" as="targetPoint" />
            <mxPoint as="offset" />
          </mxGeometry>
        </mxCell>
        <mxCell id="79DR0vdrvrGHrPE37Fvl-33" value="&lt;font&gt;Place&lt;/font&gt;" style="html=1;verticalAlign=bottom;endArrow=block;edgeStyle=elbowEdgeStyle;elbow=vertical;curved=0;rounded=0;fontSize=12;fontFamily=&quot;Latin Modern Mono 12&quot;;" parent="1" edge="1" target="79DR0vdrvrGHrPE37Fvl-34">
          <mxGeometry x="-0.0019" relative="1" as="geometry">
            <mxPoint x="105" y="490" as="sourcePoint" />
            <Array as="points">
              <mxPoint x="180" y="490" />
            </Array>
            <mxPoint x="430" y="490" as="targetPoint" />
            <mxPoint as="offset" />
          </mxGeometry>
        </mxCell>
        <mxCell id="79DR0vdrvrGHrPE37Fvl-45" value="&lt;font face=&quot;&amp;quot;Latin Modern Mono 12&amp;quot;&quot;&gt;IsValid&lt;/font&gt;" style="html=1;verticalAlign=bottom;endArrow=block;edgeStyle=elbowEdgeStyle;elbow=vertical;curved=0;rounded=0;fontSize=12;fontFamily=&quot;Latin Modern Regular 12&quot;;" parent="1" target="79DR0vdrvrGHrPE37Fvl-47" edge="1">
          <mxGeometry x="-0.0019" relative="1" as="geometry">
            <mxPoint x="105" y="410" as="sourcePoint" />
            <Array as="points">
              <mxPoint x="180" y="410" />
            </Array>
            <mxPoint x="535" y="390" as="targetPoint" />
            <mxPoint as="offset" />
          </mxGeometry>
        </mxCell>
        <mxCell id="79DR0vdrvrGHrPE37Fvl-46" value="bool" style="html=1;verticalAlign=bottom;endArrow=open;dashed=1;endSize=8;edgeStyle=elbowEdgeStyle;elbow=vertical;curved=0;rounded=0;fontFamily=&quot;Latin Modern Mono 12&quot;;fontSize=12;fontStyle=2" parent="1" edge="1" source="79DR0vdrvrGHrPE37Fvl-47">
          <mxGeometry x="-0.0006" relative="1" as="geometry">
            <mxPoint x="105" y="430" as="targetPoint" />
            <Array as="points">
              <mxPoint x="190" y="430" />
            </Array>
            <mxPoint x="440" y="430" as="sourcePoint" />
            <mxPoint as="offset" />
          </mxGeometry>
        </mxCell>
        <mxCell id="79DR0vdrvrGHrPE37Fvl-49" value="&lt;font face=&quot;&amp;quot;Latin Modern Mono 12&amp;quot;&quot;&gt;TryPlace&lt;/font&gt;" style="html=1;verticalAlign=bottom;endArrow=block;edgeStyle=elbowEdgeStyle;elbow=vertical;curved=0;rounded=0;fontSize=12;fontFamily=&quot;Latin Modern Regular 12&quot;;" parent="1" edge="1">
          <mxGeometry x="-0.0019" relative="1" as="geometry">
            <mxPoint x="105" y="450" as="sourcePoint" />
            <Array as="points">
              <mxPoint x="180" y="450" />
            </Array>
            <mxPoint x="215" y="450" as="targetPoint" />
            <mxPoint as="offset" />
          </mxGeometry>
        </mxCell>
        <mxCell id="79DR0vdrvrGHrPE37Fvl-50" value="bool" style="html=1;verticalAlign=bottom;endArrow=open;dashed=1;endSize=8;edgeStyle=elbowEdgeStyle;elbow=vertical;curved=0;rounded=0;fontFamily=&quot;Latin Modern Mono 12&quot;;fontSize=12;fontStyle=2" parent="1" edge="1">
          <mxGeometry relative="1" as="geometry">
            <mxPoint x="105" y="470" as="targetPoint" />
            <Array as="points">
              <mxPoint x="190" y="470" />
            </Array>
            <mxPoint x="215" y="470" as="sourcePoint" />
          </mxGeometry>
        </mxCell>
        <mxCell id="79DR0vdrvrGHrPE37Fvl-53" value="&lt;font face=&quot;&amp;quot;Latin Modern Mono 12&amp;quot;&quot;&gt;Destroy&lt;/font&gt;" style="html=1;verticalAlign=bottom;endArrow=block;edgeStyle=elbowEdgeStyle;elbow=vertical;curved=0;rounded=0;fontSize=12;fontFamily=&quot;Latin Modern Regular 12&quot;;" parent="1" edge="1" target="ERffLoXpCi4YTAkiUmGt-4">
          <mxGeometry x="-0.0019" relative="1" as="geometry">
            <mxPoint x="105" y="580" as="sourcePoint" />
            <Array as="points">
              <mxPoint x="180" y="580" />
            </Array>
            <mxPoint x="290" y="580" as="targetPoint" />
            <mxPoint as="offset" />
          </mxGeometry>
        </mxCell>
        <mxCell id="79DR0vdrvrGHrPE37Fvl-54" value="&lt;font face=&quot;&amp;quot;Latin Modern Mono 12&amp;quot;&quot;&gt;Deselect&lt;/font&gt;" style="html=1;verticalAlign=bottom;endArrow=block;edgeStyle=elbowEdgeStyle;elbow=vertical;curved=0;rounded=0;fontSize=12;fontFamily=&quot;Latin Modern Regular 12&quot;;" parent="1" edge="1">
          <mxGeometry x="-0.0019" relative="1" as="geometry">
            <mxPoint x="105" y="620" as="sourcePoint" />
            <Array as="points">
              <mxPoint x="180" y="620" />
            </Array>
            <mxPoint x="215" y="620" as="targetPoint" />
            <mxPoint as="offset" />
          </mxGeometry>
        </mxCell>
        <mxCell id="ERffLoXpCi4YTAkiUmGt-1" value="GameObject" style="html=1;verticalAlign=bottom;endArrow=open;dashed=1;endSize=8;edgeStyle=elbowEdgeStyle;elbow=vertical;curved=0;rounded=0;fontFamily=&quot;Latin Modern Mono 12&quot;;fontSize=12;fontStyle=2" edge="1" parent="1" target="aM9ryv3xv72pqoxQDRHE-2">
          <mxGeometry relative="1" as="geometry">
            <mxPoint x="190" y="190" as="targetPoint" />
            <Array as="points">
              <mxPoint x="270" y="190" />
            </Array>
            <mxPoint x="335" y="190" as="sourcePoint" />
          </mxGeometry>
        </mxCell>
        <mxCell id="ERffLoXpCi4YTAkiUmGt-2" value="UnityEngine&lt;br&gt;.Object" style="shape=umlLifeline;perimeter=lifelinePerimeter;whiteSpace=wrap;html=1;container=0;dropTarget=0;collapsible=0;recursiveResize=0;outlineConnect=0;portConstraint=eastwest;newEdgeStyle={&quot;edgeStyle&quot;:&quot;elbowEdgeStyle&quot;,&quot;elbow&quot;:&quot;vertical&quot;,&quot;curved&quot;:0,&quot;rounded&quot;:0};fontFamily=&quot;Latin Modern Mono 12&quot;;" vertex="1" parent="1">
          <mxGeometry x="290" y="60" width="100" height="590" as="geometry" />
        </mxCell>
        <mxCell id="ERffLoXpCi4YTAkiUmGt-3" value="" style="html=1;points=[];perimeter=orthogonalPerimeter;outlineConnect=0;targetShapes=umlLifeline;portConstraint=eastwest;newEdgeStyle={&quot;edgeStyle&quot;:&quot;elbowEdgeStyle&quot;,&quot;elbow&quot;:&quot;vertical&quot;,&quot;curved&quot;:0,&quot;rounded&quot;:0};" vertex="1" parent="ERffLoXpCi4YTAkiUmGt-2">
          <mxGeometry x="45" y="110" width="10" height="20" as="geometry" />
        </mxCell>
        <mxCell id="ERffLoXpCi4YTAkiUmGt-4" value="" style="html=1;points=[];perimeter=orthogonalPerimeter;outlineConnect=0;targetShapes=umlLifeline;portConstraint=eastwest;newEdgeStyle={&quot;edgeStyle&quot;:&quot;elbowEdgeStyle&quot;,&quot;elbow&quot;:&quot;vertical&quot;,&quot;curved&quot;:0,&quot;rounded&quot;:0};" vertex="1" parent="ERffLoXpCi4YTAkiUmGt-2">
          <mxGeometry x="45" y="520" width="10" height="20" as="geometry" />
        </mxCell>
        <mxCell id="ERffLoXpCi4YTAkiUmGt-8" value="" style="endArrow=none;dashed=1;html=1;rounded=0;" edge="1" parent="1">
          <mxGeometry width="50" height="50" relative="1" as="geometry">
            <mxPoint x="345" y="180" as="sourcePoint" />
            <mxPoint x="380" y="180" as="targetPoint" />
          </mxGeometry>
        </mxCell>
        <mxCell id="ERffLoXpCi4YTAkiUmGt-9" value="" style="html=1;verticalAlign=bottom;endArrow=open;dashed=1;endSize=8;edgeStyle=elbowEdgeStyle;elbow=vertical;curved=0;rounded=0;fontFamily=&quot;Latin Modern Mono 12&quot;;fontSize=12;fontStyle=2" edge="1" parent="1" source="79DR0vdrvrGHrPE37Fvl-10">
          <mxGeometry relative="1" as="geometry">
            <mxPoint x="105" y="260" as="targetPoint" />
            <Array as="points">
              <mxPoint x="270" y="260" />
            </Array>
            <mxPoint x="335" y="260" as="sourcePoint" />
          </mxGeometry>
        </mxCell>
        <mxCell id="ERffLoXpCi4YTAkiUmGt-10" value="" style="html=1;verticalAlign=bottom;endArrow=open;dashed=1;endSize=8;edgeStyle=elbowEdgeStyle;elbow=vertical;curved=0;rounded=0;fontFamily=&quot;Latin Modern Mono 12&quot;;fontSize=12;fontStyle=2" edge="1" parent="1">
          <mxGeometry relative="1" as="geometry">
            <mxPoint x="105" y="360" as="targetPoint" />
            <Array as="points">
              <mxPoint x="270" y="360" />
            </Array>
            <mxPoint x="430" y="360" as="sourcePoint" />
          </mxGeometry>
        </mxCell>
        <mxCell id="ERffLoXpCi4YTAkiUmGt-11" value="" style="html=1;verticalAlign=bottom;endArrow=open;dashed=1;endSize=8;edgeStyle=elbowEdgeStyle;elbow=vertical;curved=0;rounded=0;fontFamily=&quot;Latin Modern Mono 12&quot;;fontSize=12;fontStyle=2" edge="1" parent="1">
          <mxGeometry relative="1" as="geometry">
            <mxPoint x="530" y="520" as="targetPoint" />
            <Array as="points">
              <mxPoint x="470" y="520" />
            </Array>
            <mxPoint x="440" y="520" as="sourcePoint" />
          </mxGeometry>
        </mxCell>
        <mxCell id="ERffLoXpCi4YTAkiUmGt-12" value="" style="html=1;verticalAlign=bottom;endArrow=open;dashed=1;endSize=8;edgeStyle=elbowEdgeStyle;elbow=vertical;curved=0;rounded=0;fontFamily=&quot;Latin Modern Mono 12&quot;;fontSize=12;fontStyle=2" edge="1" parent="1">
          <mxGeometry x="-0.0006" relative="1" as="geometry">
            <mxPoint x="105" y="530" as="targetPoint" />
            <Array as="points">
              <mxPoint x="190" y="530" />
            </Array>
            <mxPoint x="530" y="530" as="sourcePoint" />
            <mxPoint as="offset" />
          </mxGeometry>
        </mxCell>
        <mxCell id="ERffLoXpCi4YTAkiUmGt-13" value="" style="html=1;verticalAlign=bottom;endArrow=open;dashed=1;endSize=8;edgeStyle=elbowEdgeStyle;elbow=vertical;curved=0;rounded=0;fontFamily=&quot;Latin Modern Mono 12&quot;;fontSize=12;fontStyle=2" edge="1" parent="1">
          <mxGeometry relative="1" as="geometry">
            <mxPoint x="105" y="600" as="targetPoint" />
            <Array as="points">
              <mxPoint x="270" y="600" />
            </Array>
            <mxPoint x="335" y="600" as="sourcePoint" />
          </mxGeometry>
        </mxCell>
        <mxCell id="ERffLoXpCi4YTAkiUmGt-14" value="" style="endArrow=none;dashed=1;html=1;rounded=0;" edge="1" parent="1">
          <mxGeometry width="50" height="50" relative="1" as="geometry">
            <mxPoint x="345" y="590" as="sourcePoint" />
            <mxPoint x="380" y="590" as="targetPoint" />
          </mxGeometry>
        </mxCell>
        <mxCell id="ERffLoXpCi4YTAkiUmGt-15" value="" style="html=1;verticalAlign=bottom;endArrow=open;dashed=1;endSize=8;edgeStyle=elbowEdgeStyle;elbow=vertical;curved=0;rounded=0;fontFamily=&quot;Latin Modern Mono 12&quot;;fontSize=12;fontStyle=2" edge="1" parent="1">
          <mxGeometry relative="1" as="geometry">
            <mxPoint x="105" y="630" as="targetPoint" />
            <Array as="points">
              <mxPoint x="190" y="630" />
            </Array>
            <mxPoint x="215" y="630" as="sourcePoint" />
          </mxGeometry>
        </mxCell>
      </root>
    </mxGraphModel>
  </diagram>
</mxfile>
